<svg xmlns="http://www.w3.org/2000/svg" xmlns:xlink="http://www.w3.org/1999/xlink" width="400" height="500" viewBox="0 0 400 500"><defs><clipPath id="b"><rect width="400" height="500"/></clipPath></defs><g id="a" clip-path="url(#b)"><g transform="translate(-200 -200)"><path d="M-2781.07-2390.97a13.74,13.74,0,0,1-5.012-2.675l4.264-8.247a10.026,10.026,0,0,0,3.1,1.857,9.717,9.717,0,0,0,3.479.669,6.207,6.207,0,0,0,3.89-1.151,9.785,9.785,0,0,0,2.693-3.826l.15-.372-17.431-40.273h12.044l11.3,27.121,11.371-27.121H-2740l-18.178,42.428q-2.769,6.91-6.845,9.733a16.853,16.853,0,0,1-9.837,2.824A20.568,20.568,0,0,1-2781.07-2390.97Zm-345.053-16.464a25.882,25.882,0,0,1-10.174-9.585,26.264,26.264,0,0,1-3.7-13.857,26.267,26.267,0,0,1,3.7-13.857,25.88,25.88,0,0,1,10.174-9.585,30.393,30.393,0,0,1,14.55-3.455,30.713,30.713,0,0,1,12.306,2.377,24.646,24.646,0,0,1,9.239,6.836l-7.779,7.133a16.779,16.779,0,0,0-13.167-6.093,17.572,17.572,0,0,0-8.678,2.118,15.1,15.1,0,0,0-5.947,5.907,17.264,17.264,0,0,0-2.133,8.619,17.262,17.262,0,0,0,2.133,8.619,15.1,15.1,0,0,0,5.947,5.907,17.585,17.585,0,0,0,8.678,2.117,16.691,16.691,0,0,0,13.167-6.167l7.779,7.133a24.231,24.231,0,0,1-9.276,6.911,30.986,30.986,0,0,1-12.343,2.377A30.234,30.234,0,0,1-3126.123-2407.434Zm245.407.52a19.414,19.414,0,0,1-8.08-7.319,20.06,20.06,0,0,1-2.842-10.625,20.327,20.327,0,0,1,2.805-10.589,19.6,19.6,0,0,1,7.705-7.356,22.757,22.757,0,0,1,10.959-2.638,22.573,22.573,0,0,1,10.7,2.527,18.524,18.524,0,0,1,7.518,7.244,21.488,21.488,0,0,1,2.73,10.959q0,.224-.224,3.121h-30.446a9.406,9.406,0,0,0,3.89,5.87,12.939,12.939,0,0,0,7.63,2.155,15.524,15.524,0,0,0,5.573-.929,13.513,13.513,0,0,0,4.527-2.935l6.209,6.688q-5.687,6.464-16.608,6.464A26.414,26.414,0,0,1-2880.716-2406.914Zm3.965-27.53a9.47,9.47,0,0,0-3.292,6.093h19.824a9.576,9.576,0,0,0-3.292-6.056,9.883,9.883,0,0,0-6.583-2.266A10.094,10.094,0,0,0-2876.75-2434.444Zm-102.787,27.53a19.4,19.4,0,0,1-8.079-7.319,20.048,20.048,0,0,1-2.843-10.625,20.327,20.327,0,0,1,2.806-10.589,19.6,19.6,0,0,1,7.705-7.356,22.758,22.758,0,0,1,10.959-2.638,22.572,22.572,0,0,1,10.7,2.527,18.526,18.526,0,0,1,7.518,7.244,21.5,21.5,0,0,1,2.731,10.959q0,.224-.225,3.121h-30.447a9.412,9.412,0,0,0,3.89,5.87,12.942,12.942,0,0,0,7.631,2.155,15.522,15.522,0,0,0,5.572-.929,13.5,13.5,0,0,0,4.526-2.935l6.209,6.688q-5.686,6.464-16.607,6.464A26.412,26.412,0,0,1-2979.538-2406.914Zm3.966-27.53a9.472,9.472,0,0,0-3.292,6.093h19.824a9.574,9.574,0,0,0-3.292-6.056,9.881,9.881,0,0,0-6.583-2.266A10.091,10.091,0,0,0-2975.572-2434.444Zm-53.3,27.641a18.144,18.144,0,0,1-7.218-7.208,21.825,21.825,0,0,1-2.619-10.848,21.834,21.834,0,0,1,2.619-10.849,18.143,18.143,0,0,1,7.218-7.207,21.015,21.015,0,0,1,10.287-2.527q7.7,0,12.044,4.83V-2460h11.67v55.134h-11.147v-4.607q-4.339,5.2-12.567,5.2A21.012,21.012,0,0,1-3028.873-2406.8Zm4.9-26.118a11.09,11.09,0,0,0-2.918,8.062,11.089,11.089,0,0,0,2.918,8.062,9.873,9.873,0,0,0,7.406,3.009,9.787,9.787,0,0,0,7.331-3.009,11.088,11.088,0,0,0,2.917-8.062,11.089,11.089,0,0,0-2.917-8.062,9.787,9.787,0,0,0-7.331-3.009A9.873,9.873,0,0,0-3023.972-2432.92Zm-52.778,26.006a19.679,19.679,0,0,1-7.892-7.319,20.052,20.052,0,0,1-2.843-10.625,20.056,20.056,0,0,1,2.843-10.626,19.7,19.7,0,0,1,7.892-7.319,24.288,24.288,0,0,1,11.409-2.638,24.065,24.065,0,0,1,11.371,2.638,19.773,19.773,0,0,1,7.854,7.319,20.065,20.065,0,0,1,2.843,10.626,20.061,20.061,0,0,1-2.843,10.625,19.753,19.753,0,0,1-7.854,7.319,24.042,24.042,0,0,1-11.371,2.638A24.265,24.265,0,0,1-3076.75-2406.914Zm4-26.006a11.093,11.093,0,0,0-2.917,8.062,11.091,11.091,0,0,0,2.917,8.062,9.878,9.878,0,0,0,7.407,3.01,9.755,9.755,0,0,0,7.368-3.01,11.173,11.173,0,0,0,2.88-8.062,11.175,11.175,0,0,0-2.88-8.062,9.754,9.754,0,0,0-7.368-3.009A9.878,9.878,0,0,0-3072.749-2432.92Zm257.939,28.05v-39.975h11.147v5.275a12.957,12.957,0,0,1,5.647-4.384,21.094,21.094,0,0,1,8.192-1.486v10.7q-1.947-.148-2.619-.148-5.012,0-7.854,2.785t-2.843,8.359v18.874Zm-30,0v-39.975h11.146v5.275a12.964,12.964,0,0,1,5.647-4.384,21.1,21.1,0,0,1,8.192-1.486v10.7q-1.947-.148-2.619-.148-5.012,0-7.854,2.785t-2.843,8.359v18.874Zm-98.747,0v-52.013h25.584q9.575,0,14.7,3.64a11.5,11.5,0,0,1,5.125,9.882,12.625,12.625,0,0,1-1.833,6.762,12.811,12.811,0,0,1-5.125,4.681,13.82,13.82,0,0,1,7.033,4.718,12.959,12.959,0,0,1,2.543,8.137,12,12,0,0,1-5.349,10.514q-5.349,3.678-15.6,3.678Zm12.044-9.066h14.139q4.786,0,7.219-1.56a5.334,5.334,0,0,0,2.431-4.83q0-6.464-9.65-6.464h-14.139Zm0-21.622h12.044q4.488,0,6.807-1.561a5.194,5.194,0,0,0,2.319-4.607,5.1,5.1,0,0,0-2.319-4.57q-2.32-1.522-6.807-1.523h-12.044Z" transform="translate(3340 3090.004)" fill="#20c997"/><path d="M200,400a203.251,203.251,0,0,1-20.449-1.032,200.572,200.572,0,0,1-19.858-3.031c-6.443-1.319-12.892-2.977-19.167-4.928-6.2-1.93-12.387-4.193-18.375-6.726A200.585,200.585,0,0,1,15.717,277.849c-2.533-5.988-4.8-12.171-6.725-18.375C7.04,253.2,5.382,246.75,4.063,240.307a200.512,200.512,0,0,1-3.031-19.858,202.992,202.992,0,0,1,0-40.9,200.506,200.506,0,0,1,3.031-19.858C5.382,153.25,7.04,146.8,8.992,140.526c1.93-6.2,4.193-12.387,6.725-18.375A200.584,200.584,0,0,1,122.151,15.717c5.987-2.532,12.17-4.8,18.375-6.726,6.275-1.951,12.723-3.609,19.167-4.928a200.656,200.656,0,0,1,19.858-3.031,203.018,203.018,0,0,1,40.9,0,200.653,200.653,0,0,1,19.858,3.031C246.75,5.382,253.2,7.04,259.474,8.991c6.205,1.93,12.388,4.193,18.375,6.726A200.582,200.582,0,0,1,384.283,122.151c2.533,5.988,4.8,12.171,6.725,18.375,1.952,6.275,3.61,12.723,4.928,19.167a200.5,200.5,0,0,1,3.031,19.858,202.992,202.992,0,0,1,0,40.9,200.5,200.5,0,0,1-3.031,19.858c-1.319,6.444-2.977,12.892-4.928,19.167-1.93,6.2-4.193,12.387-6.725,18.375A200.582,200.582,0,0,1,277.849,384.283c-5.988,2.533-12.17,4.8-18.375,6.726-6.275,1.952-12.724,3.61-19.167,4.928a200.572,200.572,0,0,1-19.858,3.031A203.251,203.251,0,0,1,200,400ZM178.658,114c-.115,0-.237,0-.362,0a82.349,82.349,0,0,0-8.524.643l-.452.052a62.436,62.436,0,0,0-11,2.031,54.778,54.778,0,0,0-15.765,7.113,42.43,42.43,0,0,0-6.006,4.781,70.357,70.357,0,0,0-8.036,9.194A79.207,79.207,0,0,0,121.29,150a132.452,132.452,0,0,0-9.9,28.643c-2.545,11.221-3.068,19.43-4.018,34.332l-.046.73c-.488,8.26-.375,17.29,0,35.924v.142c.123,5.769.263,12.308,2.708,20.576a53.564,53.564,0,0,0,2.371,6.989,31.62,31.62,0,0,0,4.4,7.357l.028.033a31.378,31.378,0,0,0,4.181,4.239,39.725,39.725,0,0,0,9.833,6.025,48.543,48.543,0,0,0,10.757,3.355A102.617,102.617,0,0,0,159.929,300c.431,0,.867,0,1.294-.008a263.825,263.825,0,0,0,37.366-3.167c8.852-1.265,15.067-2.182,20.586-3.353a76.074,76.074,0,0,0,15.135-4.737,102.378,102.378,0,0,0,13.856-7.186,86.671,86.671,0,0,0,18.661-15.739c14.452-16.319,18.374-33.383,20.717-43.578l.1-.431C289,215.547,289,209.688,289,198.016a51.817,51.817,0,0,0-.6-9.825,8.623,8.623,0,0,0-3.1-5.5,10.087,10.087,0,0,0-6-1.973c-.151,0-.3,0-.454.01-.817,0-1.537.061-2.013.1l-.28.023a16.55,16.55,0,0,0-6.151,1.931,21.08,21.08,0,0,0-4.535,3.323,20.729,20.729,0,0,0-3.848,4.8,16.49,16.49,0,0,0-1.7,4.726,14.091,14.091,0,0,1-2.361,5.573,24.4,24.4,0,0,1-7.023,6.62,23.693,23.693,0,0,1-11.8,3.151h-.112a23.209,23.209,0,0,1-9.266-1.925,24.247,24.247,0,0,1-10.721-9.862l-.119-.192a28.057,28.057,0,0,1-3.326-8.949,28.759,28.759,0,0,1-.306-3.486v-.006c-.065-1.67-.1-2.678-1.048-3.619a4.058,4.058,0,0,0-3.162-1.058c-.674,0-1.4.055-2.354.133h0c-.852.068-1.913.154-3.1.187a32.4,32.4,0,0,1-14.165-3.063l-.082-.042c-5.138-2.548-8.73-6.137-10.388-10.38-4.064-10.23,3.384-23.9,6.774-29.3.065-.114.145-.25.23-.395l0-.006.074-.126a24.5,24.5,0,0,0,3.264-8.179c.421-1.988,1.3-6.122-.617-10.052a20.087,20.087,0,0,0-3.693-4.171,10.212,10.212,0,0,0-3.9-1.943A18.7,18.7,0,0,0,178.658,114ZM70.2,150,20,200l50.2,50L82,238.251,43.679,200,82,161.749,70.2,150Zm259.6,0L318,161.749,356.325,200,318,238.251,329.8,250,380,200l-50.2-50Zm-104.47,19.658a3.057,3.057,0,0,1,2.066.8c.807.87.77,1.91.71,3.633v.007a30.124,30.124,0,0,0,.279,5.938,34.863,34.863,0,0,0,1.233,4.908,37.832,37.832,0,0,0,2.918,6.969c2.056,3.7,4.315,5.735,6.714,6.046a5.178,5.178,0,0,0,.648.042c4.445,0,8.5-5.652,11.459-9.779l.235-.327a37.694,37.694,0,0,0,5.434-9.943c.434-1.26.71-2.36.932-3.244v0l0-.018c.508-2.013.843-3.343,2.274-4.346a5.343,5.343,0,0,1,2.788-.784c.159,0,.319.007.476.021,1.133,0,2.547.123,4.143.271,5.767.453,7.906.669,8.933.773a10.451,10.451,0,0,0,1.2.087h.892a37.327,37.327,0,0,0,6.992-.662c3.693-.759,6.025-2.107,6.934-4.007,1.889-4.229-3.2-10.228-5.941-13.45l-.1-.112-.26-.311a38.23,38.23,0,0,0-9.657-8.109,20.838,20.838,0,0,1-5.146-4.035c-.727.047-1.476.123-2.224.227-3.666.469-9.206,1.178-13.582,5.156-.371.329-.816.756-1.359,1.281-1.081,1.042-2.715,2.615-5.184,4.733a15.377,15.377,0,0,1-6.05,3.315,5.914,5.914,0,0,1-1.571.231,4.255,4.255,0,0,1-1.393-.231,5.353,5.353,0,0,1-2.469-2.455l0-.006a5.613,5.613,0,0,1-1.107-2.451,5.965,5.965,0,0,1,.865-3.805,18.313,18.313,0,0,1,6.128-5.771,29.367,29.367,0,0,1,4-2.086,42.79,42.79,0,0,1,16.76-3.58,40.886,40.886,0,0,1,5.159.331,14.034,14.034,0,0,1,.995-2.178v-.006A37.146,37.146,0,0,0,272.1,129.2a66.769,66.769,0,0,0,2.346-9.085,22.546,22.546,0,0,0-.046-6.691,10.941,10.941,0,0,0-3.287-6.692,10.369,10.369,0,0,0-7.009-2.215,29.031,29.031,0,0,0-8.469,1.5,56.409,56.409,0,0,0-5.759,2.193l-.455.2-.008,0c-4.2,1.8-6.511,2.8-8.18,4.22l-.315.292-.036.033-.132.123-.086.081-.012.012c-1.391,1.3-2.31,2.16-3.617,2.16-1.677,0-2.794-1.26-4.087-2.719l-.009-.009-.047-.052,0,0c-.406-.458-.826-.931-1.29-1.392-2.323-2.541-4.595-3.75-9.121-6.161l-.022-.012-.288-.15-.577-.306c-3.012-1.581-8.617-4.524-12.9-4.524-.077,0-.156,0-.236,0a6.062,6.062,0,0,0-3.293.967,5.615,5.615,0,0,0-2.041,2.895,14.461,14.461,0,0,0-.675,4.335,70.522,70.522,0,0,0,.988,11.187l.057.417.061.427,0,.022c.775,5.633,1.2,8.737,2.966,11.777.313.6.63,1.139.938,1.662l.008.014c1.046,1.786,1.872,3.2,1.4,4.71-.452,1.346-1.6,1.954-3.329,2.874l-.027.014c-.617.329-1.316.7-2.074,1.161a35.845,35.845,0,0,0-8.151,7.244l-.119.142a39.361,39.361,0,0,0-4.406,5.985c-1.708,3.017-2.179,5.541-1.4,7.5.686,1.763,2.362,3.026,5.276,3.974a67.677,67.677,0,0,0,10.28,2.04l.63.1.115.017a61.684,61.684,0,0,0,9.756.979c.958,0,1.927-.036,2.96-.111,1.394-.1,2.577-.247,3.62-.378h.011l.133-.017a24.457,24.457,0,0,1,2.9-.267C225.137,169.663,225.235,169.658,225.331,169.658ZM153.62,197.41c-.145,0-.255,0-.356-.008h-.113a6.375,6.375,0,0,1-4.075-1.473c-2.827-2.568-1.852-7.571-.992-11.985l0-.021v-.011l0-.017c.873-4.337,1.354-6.726,3.566-8.931a11.26,11.26,0,0,1,7.716-3.323,10.218,10.218,0,0,1,1.649.135,10.37,10.37,0,0,1,5.37,2.8,10.25,10.25,0,0,1,2.882,5.3c.8,4.007-1.224,7.347-3.078,9.809a19.6,19.6,0,0,1-5.789,5.025l-.048.029C157.938,196.229,156.024,197.41,153.62,197.41Zm-22.057-1.221c-.115,0-.236,0-.349-.013-.1-.024-.249-.045-.4-.066a4.366,4.366,0,0,1-2.556-1.036c-2.036-1.9-1.285-5.62-.736-8.335q.066-.328.13-.636l0-.01,0-.02c.529-2.568.848-4.117,2.327-5.588a7.712,7.712,0,0,1,5.115-2.223,6.27,6.27,0,0,1,1.289.144,7.273,7.273,0,0,1,3.758,1.944,7.186,7.186,0,0,1,2.03,3.694c.631,3.013-1.207,5.53-2.09,6.739l0,0a11.785,11.785,0,0,1-3.939,3.552h0C134.523,195.372,133.245,196.189,131.563,196.189Zm12.05-25.75c-.134,0-.238,0-.329-.011a4.609,4.609,0,0,1-2.831-.982,4.537,4.537,0,0,1-1.34-3.586,21.683,21.683,0,0,1,.6-4.5c.481-2.761.852-4.529,2.337-6.009a8.094,8.094,0,0,1,5.425-2.275,7.928,7.928,0,0,1,.984.069A6.917,6.917,0,0,1,154,158.537c.513,3.054-1.247,5.462-2.092,6.62a10.77,10.77,0,0,1-3.322,3.093l-.014.01c-.2.133-.347.235-.483.331C146.473,169.624,145.2,170.439,143.613,170.439Z" transform="translate(200 200)" fill="#20c997"/></g></g></svg>